<svg width="305" height="422" viewBox="0 0 305 422" fill="none" xmlns="http://www.w3.org/2000/svg">
    <g opacity="0.4">
    <g clip-path="url(#clip0_13_992)">
    <path d="M2.16158 4.31872C3.35538 4.31872 4.32316 3.35194 4.32316 2.15936C4.32316 0.966778 3.35538 0 2.16158 0C0.967771 0 0 0.966778 0 2.15936C0 3.35194 0.967771 4.31872 2.16158 4.31872Z" fill="#FFB800" fill-opacity="0.33"/>
    <path d="M62.1063 4.31872C63.3001 4.31872 64.2679 3.35194 64.2679 2.15936C64.2679 0.966778 63.3001 0 62.1063 0C60.9125 0 59.9447 0.966778 59.9447 2.15936C59.9447 3.35194 60.9125 4.31872 62.1063 4.31872Z" fill="#FFB800" fill-opacity="0.33"/>
    <path d="M122.054 4.31872C123.248 4.31872 124.215 3.35194 124.215 2.15936C124.215 0.966778 123.248 0 122.054 0C120.86 0 119.892 0.966778 119.892 2.15936C119.892 3.35194 120.86 4.31872 122.054 4.31872Z" fill="#FFB800" fill-opacity="0.33"/>
    <path d="M181.999 4.31872C183.192 4.31872 184.16 3.35194 184.16 2.15936C184.16 0.966778 183.192 0 181.999 0C180.805 0 179.837 0.966778 179.837 2.15936C179.837 3.35194 180.805 4.31872 181.999 4.31872Z" fill="#FFB800" fill-opacity="0.33"/>
    <path d="M241.946 4.31872C243.14 4.31872 244.108 3.35194 244.108 2.15936C244.108 0.966778 243.14 0 241.946 0C240.752 0 239.785 0.966778 239.785 2.15936C239.785 3.35194 240.752 4.31872 241.946 4.31872Z" fill="#FFB800" fill-opacity="0.33"/>
    <path d="M301.891 4.31872C303.085 4.31872 304.052 3.35194 304.052 2.15936C304.052 0.966778 303.085 0 301.891 0C300.697 0 299.729 0.966778 299.729 2.15936C299.729 3.35194 300.697 4.31872 301.891 4.31872Z" fill="#FFB800" fill-opacity="0.33"/>
    <path d="M2.16158 56.5292C3.35538 56.5292 4.32316 55.5625 4.32316 54.3699C4.32316 53.1773 3.35538 52.2105 2.16158 52.2105C0.967771 52.2105 0 53.1773 0 54.3699C0 55.5625 0.967771 56.5292 2.16158 56.5292Z" fill="#FFB800" fill-opacity="0.33"/>
    <path d="M62.1063 56.5292C63.3001 56.5292 64.2679 55.5625 64.2679 54.3699C64.2679 53.1773 63.3001 52.2105 62.1063 52.2105C60.9125 52.2105 59.9447 53.1773 59.9447 54.3699C59.9447 55.5625 60.9125 56.5292 62.1063 56.5292Z" fill="#FFB800" fill-opacity="0.33"/>
    <path d="M122.054 56.5292C123.248 56.5292 124.215 55.5625 124.215 54.3699C124.215 53.1773 123.248 52.2105 122.054 52.2105C120.86 52.2105 119.892 53.1773 119.892 54.3699C119.892 55.5625 120.86 56.5292 122.054 56.5292Z" fill="#FFB800" fill-opacity="0.33"/>
    <path d="M181.999 56.5292C183.192 56.5292 184.16 55.5625 184.16 54.3699C184.16 53.1773 183.192 52.2105 181.999 52.2105C180.805 52.2105 179.837 53.1773 179.837 54.3699C179.837 55.5625 180.805 56.5292 181.999 56.5292Z" fill="#FFB800" fill-opacity="0.33"/>
    <path d="M241.946 56.5292C243.14 56.5292 244.108 55.5625 244.108 54.3699C244.108 53.1773 243.14 52.2105 241.946 52.2105C240.752 52.2105 239.785 53.1773 239.785 54.3699C239.785 55.5625 240.752 56.5292 241.946 56.5292Z" fill="#FFB800" fill-opacity="0.33"/>
    <path d="M301.891 56.5292C303.085 56.5292 304.052 55.5625 304.052 54.3699C304.052 53.1773 303.085 52.2105 301.891 52.2105C300.697 52.2105 299.729 53.1773 299.729 54.3699C299.729 55.5625 300.697 56.5292 301.891 56.5292Z" fill="#FFB800" fill-opacity="0.33"/>
    <path d="M2.16158 108.74C3.35538 108.74 4.32316 107.773 4.32316 106.58C4.32316 105.388 3.35538 104.421 2.16158 104.421C0.967771 104.421 0 105.388 0 106.58C0 107.773 0.967771 108.74 2.16158 108.74Z" fill="#FFB800" fill-opacity="0.33"/>
    <path d="M62.1063 108.74C63.3001 108.74 64.2679 107.773 64.2679 106.58C64.2679 105.388 63.3001 104.421 62.1063 104.421C60.9125 104.421 59.9447 105.388 59.9447 106.58C59.9447 107.773 60.9125 108.74 62.1063 108.74Z" fill="#FFB800" fill-opacity="0.33"/>
    <path d="M122.054 108.74C123.248 108.74 124.215 107.773 124.215 106.58C124.215 105.388 123.248 104.421 122.054 104.421C120.86 104.421 119.892 105.388 119.892 106.58C119.892 107.773 120.86 108.74 122.054 108.74Z" fill="#FFB800" fill-opacity="0.33"/>
    <path d="M181.999 108.74C183.192 108.74 184.16 107.773 184.16 106.58C184.16 105.388 183.192 104.421 181.999 104.421C180.805 104.421 179.837 105.388 179.837 106.58C179.837 107.773 180.805 108.74 181.999 108.74Z" fill="#FFB800" fill-opacity="0.33"/>
    <path d="M241.946 108.74C243.14 108.74 244.108 107.773 244.108 106.58C244.108 105.388 243.14 104.421 241.946 104.421C240.752 104.421 239.785 105.388 239.785 106.58C239.785 107.773 240.752 108.74 241.946 108.74Z" fill="#FFB800" fill-opacity="0.33"/>
    <path d="M301.891 108.74C303.085 108.74 304.052 107.773 304.052 106.58C304.052 105.388 303.085 104.421 301.891 104.421C300.697 104.421 299.729 105.388 299.729 106.58C299.729 107.773 300.697 108.74 301.891 108.74Z" fill="#FFB800" fill-opacity="0.33"/>
    <path d="M2.16158 160.95C3.35538 160.95 4.32316 159.983 4.32316 158.791C4.32316 157.598 3.35538 156.632 2.16158 156.632C0.967771 156.632 0 157.598 0 158.791C0 159.983 0.967771 160.95 2.16158 160.95Z" fill="#FFB800" fill-opacity="0.33"/>
    <path d="M62.1063 160.95C63.3001 160.95 64.2679 159.983 64.2679 158.791C64.2679 157.598 63.3001 156.632 62.1063 156.632C60.9125 156.632 59.9447 157.598 59.9447 158.791C59.9447 159.983 60.9125 160.95 62.1063 160.95Z" fill="#FFB800" fill-opacity="0.33"/>
    <path d="M122.054 160.95C123.248 160.95 124.215 159.983 124.215 158.791C124.215 157.598 123.248 156.632 122.054 156.632C120.86 156.632 119.892 157.598 119.892 158.791C119.892 159.983 120.86 160.95 122.054 160.95Z" fill="#FFB800" fill-opacity="0.33"/>
    <path d="M181.999 160.95C183.192 160.95 184.16 159.983 184.16 158.791C184.16 157.598 183.192 156.632 181.999 156.632C180.805 156.632 179.837 157.598 179.837 158.791C179.837 159.983 180.805 160.95 181.999 160.95Z" fill="#FFB800" fill-opacity="0.33"/>
    <path d="M241.946 160.95C243.14 160.95 244.108 159.983 244.108 158.791C244.108 157.598 243.14 156.632 241.946 156.632C240.752 156.632 239.785 157.598 239.785 158.791C239.785 159.983 240.752 160.95 241.946 160.95Z" fill="#FFB800" fill-opacity="0.33"/>
    <path d="M301.891 160.95C303.085 160.95 304.052 159.983 304.052 158.791C304.052 157.598 303.085 156.632 301.891 156.632C300.697 156.632 299.729 157.598 299.729 158.791C299.729 159.983 300.697 160.95 301.891 160.95Z" fill="#FFB800" fill-opacity="0.33"/>
    <path d="M2.16158 213.161C3.35538 213.161 4.32316 212.194 4.32316 211.001C4.32316 209.809 3.35538 208.842 2.16158 208.842C0.967771 208.842 0 209.809 0 211.001C0 212.194 0.967771 213.161 2.16158 213.161Z" fill="#FFB800" fill-opacity="0.33"/>
    <path d="M62.1063 213.161C63.3001 213.161 64.2679 212.194 64.2679 211.001C64.2679 209.809 63.3001 208.842 62.1063 208.842C60.9125 208.842 59.9447 209.809 59.9447 211.001C59.9447 212.194 60.9125 213.161 62.1063 213.161Z" fill="#FFB800" fill-opacity="0.33"/>
    <path d="M122.054 213.161C123.248 213.161 124.215 212.194 124.215 211.001C124.215 209.809 123.248 208.842 122.054 208.842C120.86 208.842 119.892 209.809 119.892 211.001C119.892 212.194 120.86 213.161 122.054 213.161Z" fill="#FFB800" fill-opacity="0.33"/>
    <path d="M181.999 213.161C183.192 213.161 184.16 212.194 184.16 211.001C184.16 209.809 183.192 208.842 181.999 208.842C180.805 208.842 179.837 209.809 179.837 211.001C179.837 212.194 180.805 213.161 181.999 213.161Z" fill="#FFB800" fill-opacity="0.33"/>
    <path d="M241.946 213.161C243.14 213.161 244.108 212.194 244.108 211.001C244.108 209.809 243.14 208.842 241.946 208.842C240.752 208.842 239.785 209.809 239.785 211.001C239.785 212.194 240.752 213.161 241.946 213.161Z" fill="#FFB800" fill-opacity="0.33"/>
    <path d="M301.891 213.161C303.085 213.161 304.052 212.194 304.052 211.001C304.052 209.809 303.085 208.842 301.891 208.842C300.697 208.842 299.729 209.809 299.729 211.001C299.729 212.194 300.697 213.161 301.891 213.161Z" fill="#FFB800" fill-opacity="0.33"/>
    <path d="M2.16158 265.371C3.35538 265.371 4.32316 264.405 4.32316 263.212C4.32316 262.019 3.35538 261.053 2.16158 261.053C0.967771 261.053 0 262.019 0 263.212C0 264.405 0.967771 265.371 2.16158 265.371Z" fill="#FFB800" fill-opacity="0.33"/>
    <path d="M62.1063 265.371C63.3001 265.371 64.2679 264.405 64.2679 263.212C64.2679 262.019 63.3001 261.053 62.1063 261.053C60.9125 261.053 59.9447 262.019 59.9447 263.212C59.9447 264.405 60.9125 265.371 62.1063 265.371Z" fill="#FFB800" fill-opacity="0.33"/>
    <path d="M122.054 265.371C123.248 265.371 124.215 264.405 124.215 263.212C124.215 262.019 123.248 261.053 122.054 261.053C120.86 261.053 119.892 262.019 119.892 263.212C119.892 264.405 120.86 265.371 122.054 265.371Z" fill="#FFB800" fill-opacity="0.33"/>
    <path d="M181.999 265.371C183.192 265.371 184.16 264.405 184.16 263.212C184.16 262.019 183.192 261.053 181.999 261.053C180.805 261.053 179.837 262.019 179.837 263.212C179.837 264.405 180.805 265.371 181.999 265.371Z" fill="#FFB800" fill-opacity="0.33"/>
    <path d="M241.946 265.371C243.14 265.371 244.108 264.405 244.108 263.212C244.108 262.019 243.14 261.053 241.946 261.053C240.752 261.053 239.785 262.019 239.785 263.212C239.785 264.405 240.752 265.371 241.946 265.371Z" fill="#FFB800" fill-opacity="0.33"/>
    <path d="M301.891 265.371C303.085 265.371 304.052 264.405 304.052 263.212C304.052 262.019 303.085 261.053 301.891 261.053C300.697 261.053 299.729 262.019 299.729 263.212C299.729 264.405 300.697 265.371 301.891 265.371Z" fill="#FFB800" fill-opacity="0.33"/>
    <path d="M2.16158 317.582C3.35538 317.582 4.32316 316.615 4.32316 315.422C4.32316 314.23 3.35538 313.263 2.16158 313.263C0.967771 313.263 0 314.23 0 315.422C0 316.615 0.967771 317.582 2.16158 317.582Z" fill="#FFB800" fill-opacity="0.33"/>
    <path d="M62.1063 317.582C63.3001 317.582 64.2679 316.615 64.2679 315.422C64.2679 314.23 63.3001 313.263 62.1063 313.263C60.9125 313.263 59.9447 314.23 59.9447 315.422C59.9447 316.615 60.9125 317.582 62.1063 317.582Z" fill="#FFB800" fill-opacity="0.33"/>
    <path d="M122.054 317.582C123.248 317.582 124.215 316.615 124.215 315.422C124.215 314.23 123.248 313.263 122.054 313.263C120.86 313.263 119.892 314.23 119.892 315.422C119.892 316.615 120.86 317.582 122.054 317.582Z" fill="#FFB800" fill-opacity="0.33"/>
    <path d="M181.999 317.582C183.192 317.582 184.16 316.615 184.16 315.422C184.16 314.23 183.192 313.263 181.999 313.263C180.805 313.263 179.837 314.23 179.837 315.422C179.837 316.615 180.805 317.582 181.999 317.582Z" fill="#FFB800" fill-opacity="0.33"/>
    <path d="M241.946 317.582C243.14 317.582 244.108 316.615 244.108 315.422C244.108 314.23 243.14 313.263 241.946 313.263C240.752 313.263 239.785 314.23 239.785 315.422C239.785 316.615 240.752 317.582 241.946 317.582Z" fill="#FFB800" fill-opacity="0.33"/>
    <path d="M301.891 317.582C303.085 317.582 304.052 316.615 304.052 315.422C304.052 314.23 303.085 313.263 301.891 313.263C300.697 313.263 299.729 314.23 299.729 315.422C299.729 316.615 300.697 317.582 301.891 317.582Z" fill="#FFB800" fill-opacity="0.33"/>
    <path d="M2.16158 369.792C3.35538 369.792 4.32316 368.826 4.32316 367.633C4.32316 366.44 3.35538 365.474 2.16158 365.474C0.967771 365.474 0 366.44 0 367.633C0 368.826 0.967771 369.792 2.16158 369.792Z" fill="#FFB800" fill-opacity="0.33"/>
    <path d="M62.1063 369.792C63.3001 369.792 64.2679 368.826 64.2679 367.633C64.2679 366.44 63.3001 365.474 62.1063 365.474C60.9125 365.474 59.9447 366.44 59.9447 367.633C59.9447 368.826 60.9125 369.792 62.1063 369.792Z" fill="#FFB800" fill-opacity="0.33"/>
    <path d="M122.054 369.792C123.248 369.792 124.215 368.826 124.215 367.633C124.215 366.44 123.248 365.474 122.054 365.474C120.86 365.474 119.892 366.44 119.892 367.633C119.892 368.826 120.86 369.792 122.054 369.792Z" fill="#FFB800" fill-opacity="0.33"/>
    <path d="M181.999 369.792C183.192 369.792 184.16 368.826 184.16 367.633C184.16 366.44 183.192 365.474 181.999 365.474C180.805 365.474 179.837 366.44 179.837 367.633C179.837 368.826 180.805 369.792 181.999 369.792Z" fill="#FFB800" fill-opacity="0.33"/>
    <path d="M241.946 369.792C243.14 369.792 244.108 368.826 244.108 367.633C244.108 366.44 243.14 365.474 241.946 365.474C240.752 365.474 239.785 366.44 239.785 367.633C239.785 368.826 240.752 369.792 241.946 369.792Z" fill="#FFB800" fill-opacity="0.33"/>
    <path d="M301.891 369.792C303.085 369.792 304.052 368.826 304.052 367.633C304.052 366.44 303.085 365.474 301.891 365.474C300.697 365.474 299.729 366.44 299.729 367.633C299.729 368.826 300.697 369.792 301.891 369.792Z" fill="#FFB800" fill-opacity="0.33"/>
    <path d="M2.16158 422.003C3.35538 422.003 4.32316 421.036 4.32316 419.844C4.32316 418.651 3.35538 417.684 2.16158 417.684C0.967771 417.684 0 418.651 0 419.844C0 421.036 0.967771 422.003 2.16158 422.003Z" fill="#FFB800" fill-opacity="0.33"/>
    <path d="M62.1063 422.003C63.3001 422.003 64.2679 421.036 64.2679 419.844C64.2679 418.651 63.3001 417.684 62.1063 417.684C60.9125 417.684 59.9447 418.651 59.9447 419.844C59.9447 421.036 60.9125 422.003 62.1063 422.003Z" fill="#FFB800" fill-opacity="0.33"/>
    <path d="M122.054 422.003C123.248 422.003 124.215 421.036 124.215 419.844C124.215 418.651 123.248 417.684 122.054 417.684C120.86 417.684 119.892 418.651 119.892 419.844C119.892 421.036 120.86 422.003 122.054 422.003Z" fill="#FFB800" fill-opacity="0.33"/>
    <path d="M181.999 422.003C183.192 422.003 184.16 421.036 184.16 419.844C184.16 418.651 183.192 417.684 181.999 417.684C180.805 417.684 179.837 418.651 179.837 419.844C179.837 421.036 180.805 422.003 181.999 422.003Z" fill="#FFB800" fill-opacity="0.33"/>
    <path d="M241.946 422.003C243.14 422.003 244.108 421.036 244.108 419.844C244.108 418.651 243.14 417.684 241.946 417.684C240.752 417.684 239.785 418.651 239.785 419.844C239.785 421.036 240.752 422.003 241.946 422.003Z" fill="#FFB800" fill-opacity="0.33"/>
    <path d="M301.891 422.003C303.085 422.003 304.052 421.036 304.052 419.844C304.052 418.651 303.085 417.684 301.891 417.684C300.697 417.684 299.729 418.651 299.729 419.844C299.729 421.036 300.697 422.003 301.891 422.003Z" fill="#FFB800" fill-opacity="0.33"/>
    </g>
    </g>
    <defs>
    <clipPath id="clip0_13_992">
    <rect width="364" height="422" rx="140" fill="white"/>
    </clipPath>
    </defs>
    </svg>
    