<svg width="11" height="15" viewBox="0 0 11 15" fill="none" xmlns="http://www.w3.org/2000/svg">
    <g clip-path="url(#clip0_13_519)">
    <path d="M4.85262 13.7871C5.21069 14.1533 5.7922 14.1533 6.15027 13.7871L10.7336 9.09961C11.0917 8.7334 11.0917 8.13867 10.7336 7.77246C10.3755 7.40625 9.79402 7.40625 9.43595 7.77246L6.41668 10.8633V1.875C6.41668 1.35645 6.00704 0.9375 5.50001 0.9375C4.99298 0.9375 4.58334 1.35645 4.58334 1.875V10.8604L1.56407 7.77539C1.206 7.40918 0.624491 7.40918 0.266418 7.77539C-0.0916544 8.1416 -0.0916544 8.73633 0.266418 9.10254L4.84975 13.79L4.85262 13.7871Z" fill="#777777"/>
    </g>
    <defs>
    <clipPath id="clip0_13_519">
    <rect width="11" height="15" fill="white"/>
    </clipPath>
    </defs>
    </svg>
    