<svg width="36" height="37" viewBox="0 0 36 37" fill="none" xmlns="http://www.w3.org/2000/svg">
    <path fill-rule="evenodd" clip-rule="evenodd"
        d="M35.8744 0.173019L32.6065 32.4565L17.9157 36.0475L3.26462 32.4623L0 0.173019H35.8744Z"
        fill="#E44D26" />
    <path fill-rule="evenodd" clip-rule="evenodd"
        d="M17.9355 33.3032L29.8087 30.4012L32.5999 2.81223H17.9355V33.3032Z" fill="#F16529" />
    <path fill-rule="evenodd" clip-rule="evenodd"
        d="M11.5851 10.7327H17.9389V6.77394H6.67493L6.78088 7.83663L7.88343 18.7496H17.9322V14.7879H11.9957L11.5851 10.7327ZM12.595 20.729H8.08871L8.7178 26.9475L17.919 29.1984L17.9389 29.1925V25.0732L17.919 25.079L12.9161 23.8879L12.595 20.729Z"
        fill="#EBEBEB" />
    <path fill-rule="evenodd" clip-rule="evenodd"
        d="M17.9223 18.7496H23.4516L22.9318 23.885L17.9223 25.0761V29.1955L27.1301 26.9446L27.1963 26.276L28.2525 15.8506L28.3618 14.7879H17.9223V18.7496ZM17.9223 10.724V10.7327H28.7691L28.8585 9.84231L29.0637 7.83371L29.1697 6.77103H17.9223V10.724Z"
        fill="white" />
</svg>
    