<svg width="14" height="12" viewBox="0 0 14 12" fill="none" xmlns="http://www.w3.org/2000/svg">
    <path d="M1.3125 0.75C0.587891 0.75 0 1.33789 0 2.0625C0 2.47539 0.194141 2.86367 0.525 3.1125L6.475 7.575C6.78672 7.80742 7.21328 7.80742 7.525 7.575L13.475 3.1125C13.8059 2.86367 14 2.47539 14 2.0625C14 1.33789 13.4121 0.75 12.6875 0.75H1.3125ZM0 3.8125V9.5C0 10.4652 0.784766 11.25 1.75 11.25H12.25C13.2152 11.25 14 10.4652 14 9.5V3.8125L8.05 8.275C7.42656 8.74258 6.57344 8.74258 5.95 8.275L0 3.8125Z" fill="#D2D2D2"/>
    </svg>
    