<svg width="158" height="183" viewBox="0 0 158 183" fill="none" xmlns="http://www.w3.org/2000/svg">
    <g opacity="0.2" clip-path="url(#clip0_13_314)">
    <path d="M0.938267 1.87281C1.45646 1.87281 1.87653 1.45357 1.87653 0.936404C1.87653 0.419243 1.45646 0 0.938267 0C0.420077 0 0 0.419243 0 0.936404C0 1.45357 0.420077 1.87281 0.938267 1.87281Z" fill="#FFB800"/>
    <path d="M26.9582 1.87281C27.4764 1.87281 27.8965 1.45357 27.8965 0.936404C27.8965 0.419243 27.4764 0 26.9582 0C26.44 0 26.02 0.419243 26.02 0.936404C26.02 1.45357 26.44 1.87281 26.9582 1.87281Z" fill="#FFB800"/>
    <path d="M52.9794 1.87281C53.4976 1.87281 53.9177 1.45357 53.9177 0.936404C53.9177 0.419243 53.4976 0 52.9794 0C52.4612 0 52.0412 0.419243 52.0412 0.936404C52.0412 1.45357 52.4612 1.87281 52.9794 1.87281Z" fill="#FFB800"/>
    <path d="M78.9994 1.87281C79.5176 1.87281 79.9377 1.45357 79.9377 0.936404C79.9377 0.419243 79.5176 0 78.9994 0C78.4812 0 78.0611 0.419243 78.0611 0.936404C78.0611 1.45357 78.4812 1.87281 78.9994 1.87281Z" fill="#FFB800"/>
    <path d="M105.021 1.87281C105.539 1.87281 105.959 1.45357 105.959 0.936404C105.959 0.419243 105.539 0 105.021 0C104.502 0 104.082 0.419243 104.082 0.936404C104.082 1.45357 104.502 1.87281 105.021 1.87281Z" fill="#FFB800"/>
    <path d="M131.041 1.87281C131.559 1.87281 131.979 1.45357 131.979 0.936404C131.979 0.419243 131.559 0 131.041 0C130.522 0 130.102 0.419243 130.102 0.936404C130.102 1.45357 130.522 1.87281 131.041 1.87281Z" fill="#FFB800"/>
    <path d="M157.062 1.87281C157.58 1.87281 158 1.45357 158 0.936404C158 0.419243 157.58 0 157.062 0C156.544 0 156.123 0.419243 156.123 0.936404C156.123 1.45357 156.544 1.87281 157.062 1.87281Z" fill="#FFB800"/>
    <path d="M0.938267 24.5139C1.45646 24.5139 1.87653 24.0946 1.87653 23.5775C1.87653 23.0603 1.45646 22.6411 0.938267 22.6411C0.420077 22.6411 0 23.0603 0 23.5775C0 24.0946 0.420077 24.5139 0.938267 24.5139Z" fill="#FFB800"/>
    <path d="M26.9582 24.5139C27.4764 24.5139 27.8965 24.0946 27.8965 23.5775C27.8965 23.0603 27.4764 22.6411 26.9582 22.6411C26.44 22.6411 26.02 23.0603 26.02 23.5775C26.02 24.0946 26.44 24.5139 26.9582 24.5139Z" fill="#FFB800"/>
    <path d="M52.9794 24.5139C53.4976 24.5139 53.9177 24.0946 53.9177 23.5775C53.9177 23.0603 53.4976 22.6411 52.9794 22.6411C52.4612 22.6411 52.0412 23.0603 52.0412 23.5775C52.0412 24.0946 52.4612 24.5139 52.9794 24.5139Z" fill="#FFB800"/>
    <path d="M78.9994 24.5139C79.5176 24.5139 79.9377 24.0946 79.9377 23.5775C79.9377 23.0603 79.5176 22.6411 78.9994 22.6411C78.4812 22.6411 78.0611 23.0603 78.0611 23.5775C78.0611 24.0946 78.4812 24.5139 78.9994 24.5139Z" fill="#FFB800"/>
    <path d="M105.021 24.5139C105.539 24.5139 105.959 24.0946 105.959 23.5775C105.959 23.0603 105.539 22.6411 105.021 22.6411C104.502 22.6411 104.082 23.0603 104.082 23.5775C104.082 24.0946 104.502 24.5139 105.021 24.5139Z" fill="#FFB800"/>
    <path d="M131.041 24.5139C131.559 24.5139 131.979 24.0946 131.979 23.5775C131.979 23.0603 131.559 22.6411 131.041 22.6411C130.522 22.6411 130.102 23.0603 130.102 23.5775C130.102 24.0946 130.522 24.5139 131.041 24.5139Z" fill="#FFB800"/>
    <path d="M157.062 24.5139C157.58 24.5139 158 24.0946 158 23.5775C158 23.0603 157.58 22.6411 157.062 22.6411C156.544 22.6411 156.123 23.0603 156.123 23.5775C156.123 24.0946 156.544 24.5139 157.062 24.5139Z" fill="#FFB800"/>
    <path d="M0.938267 47.1549C1.45646 47.1549 1.87653 46.7357 1.87653 46.2185C1.87653 45.7013 1.45646 45.2821 0.938267 45.2821C0.420077 45.2821 0 45.7013 0 46.2185C0 46.7357 0.420077 47.1549 0.938267 47.1549Z" fill="#FFB800"/>
    <path d="M26.9582 47.1549C27.4764 47.1549 27.8965 46.7357 27.8965 46.2185C27.8965 45.7013 27.4764 45.2821 26.9582 45.2821C26.44 45.2821 26.02 45.7013 26.02 46.2185C26.02 46.7357 26.44 47.1549 26.9582 47.1549Z" fill="#FFB800"/>
    <path d="M52.9794 47.1549C53.4976 47.1549 53.9177 46.7357 53.9177 46.2185C53.9177 45.7013 53.4976 45.2821 52.9794 45.2821C52.4612 45.2821 52.0412 45.7013 52.0412 46.2185C52.0412 46.7357 52.4612 47.1549 52.9794 47.1549Z" fill="#FFB800"/>
    <path d="M78.9994 47.1549C79.5176 47.1549 79.9377 46.7357 79.9377 46.2185C79.9377 45.7013 79.5176 45.2821 78.9994 45.2821C78.4812 45.2821 78.0611 45.7013 78.0611 46.2185C78.0611 46.7357 78.4812 47.1549 78.9994 47.1549Z" fill="#FFB800"/>
    <path d="M105.021 47.1549C105.539 47.1549 105.959 46.7357 105.959 46.2185C105.959 45.7013 105.539 45.2821 105.021 45.2821C104.502 45.2821 104.082 45.7013 104.082 46.2185C104.082 46.7357 104.502 47.1549 105.021 47.1549Z" fill="#FFB800"/>
    <path d="M131.041 47.1549C131.559 47.1549 131.979 46.7357 131.979 46.2185C131.979 45.7013 131.559 45.2821 131.041 45.2821C130.522 45.2821 130.102 45.7013 130.102 46.2185C130.102 46.7357 130.522 47.1549 131.041 47.1549Z" fill="#FFB800"/>
    <path d="M157.062 47.1549C157.58 47.1549 158 46.7357 158 46.2185C158 45.7013 157.58 45.2821 157.062 45.2821C156.544 45.2821 156.123 45.7013 156.123 46.2185C156.123 46.7357 156.544 47.1549 157.062 47.1549Z" fill="#FFB800"/>
    <path d="M0.938267 69.796C1.45646 69.796 1.87653 69.3767 1.87653 68.8596C1.87653 68.3424 1.45646 67.9232 0.938267 67.9232C0.420077 67.9232 0 68.3424 0 68.8596C0 69.3767 0.420077 69.796 0.938267 69.796Z" fill="#FFB800"/>
    <path d="M26.9582 69.796C27.4764 69.796 27.8965 69.3767 27.8965 68.8596C27.8965 68.3424 27.4764 67.9232 26.9582 67.9232C26.44 67.9232 26.02 68.3424 26.02 68.8596C26.02 69.3767 26.44 69.796 26.9582 69.796Z" fill="#FFB800"/>
    <path d="M52.9794 69.796C53.4976 69.796 53.9177 69.3767 53.9177 68.8596C53.9177 68.3424 53.4976 67.9232 52.9794 67.9232C52.4612 67.9232 52.0412 68.3424 52.0412 68.8596C52.0412 69.3767 52.4612 69.796 52.9794 69.796Z" fill="#FFB800"/>
    <path d="M78.9994 69.796C79.5176 69.796 79.9377 69.3767 79.9377 68.8596C79.9377 68.3424 79.5176 67.9232 78.9994 67.9232C78.4812 67.9232 78.0611 68.3424 78.0611 68.8596C78.0611 69.3767 78.4812 69.796 78.9994 69.796Z" fill="#FFB800"/>
    <path d="M105.021 69.796C105.539 69.796 105.959 69.3767 105.959 68.8596C105.959 68.3424 105.539 67.9232 105.021 67.9232C104.502 67.9232 104.082 68.3424 104.082 68.8596C104.082 69.3767 104.502 69.796 105.021 69.796Z" fill="#FFB800"/>
    <path d="M131.041 69.796C131.559 69.796 131.979 69.3767 131.979 68.8596C131.979 68.3424 131.559 67.9232 131.041 67.9232C130.522 67.9232 130.102 68.3424 130.102 68.8596C130.102 69.3767 130.522 69.796 131.041 69.796Z" fill="#FFB800"/>
    <path d="M157.062 69.796C157.58 69.796 158 69.3767 158 68.8596C158 68.3424 157.58 67.9232 157.062 67.9232C156.544 67.9232 156.123 68.3424 156.123 68.8596C156.123 69.3767 156.544 69.796 157.062 69.796Z" fill="#FFB800"/>
    <path d="M0.938267 92.437C1.45646 92.437 1.87653 92.0178 1.87653 91.5006C1.87653 90.9835 1.45646 90.5642 0.938267 90.5642C0.420077 90.5642 0 90.9835 0 91.5006C0 92.0178 0.420077 92.437 0.938267 92.437Z" fill="#FFB800"/>
    <path d="M26.9582 92.437C27.4764 92.437 27.8965 92.0178 27.8965 91.5006C27.8965 90.9835 27.4764 90.5642 26.9582 90.5642C26.44 90.5642 26.02 90.9835 26.02 91.5006C26.02 92.0178 26.44 92.437 26.9582 92.437Z" fill="#FFB800"/>
    <path d="M52.9794 92.437C53.4976 92.437 53.9177 92.0178 53.9177 91.5006C53.9177 90.9835 53.4976 90.5642 52.9794 90.5642C52.4612 90.5642 52.0412 90.9835 52.0412 91.5006C52.0412 92.0178 52.4612 92.437 52.9794 92.437Z" fill="#FFB800"/>
    <path d="M78.9994 92.437C79.5176 92.437 79.9377 92.0178 79.9377 91.5006C79.9377 90.9835 79.5176 90.5642 78.9994 90.5642C78.4812 90.5642 78.0611 90.9835 78.0611 91.5006C78.0611 92.0178 78.4812 92.437 78.9994 92.437Z" fill="#FFB800"/>
    <path d="M105.021 92.437C105.539 92.437 105.959 92.0178 105.959 91.5006C105.959 90.9835 105.539 90.5642 105.021 90.5642C104.502 90.5642 104.082 90.9835 104.082 91.5006C104.082 92.0178 104.502 92.437 105.021 92.437Z" fill="#FFB800"/>
    <path d="M131.041 92.437C131.559 92.437 131.979 92.0178 131.979 91.5006C131.979 90.9835 131.559 90.5642 131.041 90.5642C130.522 90.5642 130.102 90.9835 130.102 91.5006C130.102 92.0178 130.522 92.437 131.041 92.437Z" fill="#FFB800"/>
    <path d="M157.062 92.437C157.58 92.437 158 92.0178 158 91.5006C158 90.9835 157.58 90.5642 157.062 90.5642C156.544 90.5642 156.123 90.9835 156.123 91.5006C156.123 92.0178 156.544 92.437 157.062 92.437Z" fill="#FFB800"/>
    <path d="M0.938267 115.078C1.45646 115.078 1.87653 114.659 1.87653 114.142C1.87653 113.625 1.45646 113.205 0.938267 113.205C0.420077 113.205 0 113.625 0 114.142C0 114.659 0.420077 115.078 0.938267 115.078Z" fill="#FFB800"/>
    <path d="M26.9582 115.078C27.4764 115.078 27.8965 114.659 27.8965 114.142C27.8965 113.625 27.4764 113.205 26.9582 113.205C26.44 113.205 26.02 113.625 26.02 114.142C26.02 114.659 26.44 115.078 26.9582 115.078Z" fill="#FFB800"/>
    <path d="M52.9794 115.078C53.4976 115.078 53.9177 114.659 53.9177 114.142C53.9177 113.625 53.4976 113.205 52.9794 113.205C52.4612 113.205 52.0412 113.625 52.0412 114.142C52.0412 114.659 52.4612 115.078 52.9794 115.078Z" fill="#FFB800"/>
    <path d="M78.9994 115.078C79.5176 115.078 79.9377 114.659 79.9377 114.142C79.9377 113.625 79.5176 113.205 78.9994 113.205C78.4812 113.205 78.0611 113.625 78.0611 114.142C78.0611 114.659 78.4812 115.078 78.9994 115.078Z" fill="#FFB800"/>
    <path d="M105.021 115.078C105.539 115.078 105.959 114.659 105.959 114.142C105.959 113.625 105.539 113.205 105.021 113.205C104.502 113.205 104.082 113.625 104.082 114.142C104.082 114.659 104.502 115.078 105.021 115.078Z" fill="#FFB800"/>
    <path d="M131.041 115.078C131.559 115.078 131.979 114.659 131.979 114.142C131.979 113.625 131.559 113.205 131.041 113.205C130.522 113.205 130.102 113.625 130.102 114.142C130.102 114.659 130.522 115.078 131.041 115.078Z" fill="#FFB800"/>
    <path d="M157.062 115.078C157.58 115.078 158 114.659 158 114.142C158 113.625 157.58 113.205 157.062 113.205C156.544 113.205 156.123 113.625 156.123 114.142C156.123 114.659 156.544 115.078 157.062 115.078Z" fill="#FFB800"/>
    <path d="M0.938267 137.719C1.45646 137.719 1.87653 137.3 1.87653 136.783C1.87653 136.266 1.45646 135.846 0.938267 135.846C0.420077 135.846 0 136.266 0 136.783C0 137.3 0.420077 137.719 0.938267 137.719Z" fill="#FFB800"/>
    <path d="M26.9582 137.719C27.4764 137.719 27.8965 137.3 27.8965 136.783C27.8965 136.266 27.4764 135.846 26.9582 135.846C26.44 135.846 26.02 136.266 26.02 136.783C26.02 137.3 26.44 137.719 26.9582 137.719Z" fill="#FFB800"/>
    <path d="M52.9794 137.719C53.4976 137.719 53.9177 137.3 53.9177 136.783C53.9177 136.266 53.4976 135.846 52.9794 135.846C52.4612 135.846 52.0412 136.266 52.0412 136.783C52.0412 137.3 52.4612 137.719 52.9794 137.719Z" fill="#FFB800"/>
    <path d="M78.9994 137.719C79.5176 137.719 79.9377 137.3 79.9377 136.783C79.9377 136.266 79.5176 135.846 78.9994 135.846C78.4812 135.846 78.0611 136.266 78.0611 136.783C78.0611 137.3 78.4812 137.719 78.9994 137.719Z" fill="#FFB800"/>
    <path d="M105.021 137.719C105.539 137.719 105.959 137.3 105.959 136.783C105.959 136.266 105.539 135.846 105.021 135.846C104.502 135.846 104.082 136.266 104.082 136.783C104.082 137.3 104.502 137.719 105.021 137.719Z" fill="#FFB800"/>
    <path d="M131.041 137.719C131.559 137.719 131.979 137.3 131.979 136.783C131.979 136.266 131.559 135.846 131.041 135.846C130.522 135.846 130.102 136.266 130.102 136.783C130.102 137.3 130.522 137.719 131.041 137.719Z" fill="#FFB800"/>
    <path d="M157.062 137.719C157.58 137.719 158 137.3 158 136.783C158 136.266 157.58 135.846 157.062 135.846C156.544 135.846 156.123 136.266 156.123 136.783C156.123 137.3 156.544 137.719 157.062 137.719Z" fill="#FFB800"/>
    <path d="M0.938267 160.36C1.45646 160.36 1.87653 159.941 1.87653 159.424C1.87653 158.907 1.45646 158.487 0.938267 158.487C0.420077 158.487 0 158.907 0 159.424C0 159.941 0.420077 160.36 0.938267 160.36Z" fill="#FFB800"/>
    <path d="M26.9582 160.36C27.4764 160.36 27.8965 159.941 27.8965 159.424C27.8965 158.907 27.4764 158.487 26.9582 158.487C26.44 158.487 26.02 158.907 26.02 159.424C26.02 159.941 26.44 160.36 26.9582 160.36Z" fill="#FFB800"/>
    <path d="M52.9794 160.36C53.4976 160.36 53.9177 159.941 53.9177 159.424C53.9177 158.907 53.4976 158.487 52.9794 158.487C52.4612 158.487 52.0412 158.907 52.0412 159.424C52.0412 159.941 52.4612 160.36 52.9794 160.36Z" fill="#FFB800"/>
    <path d="M78.9994 160.36C79.5176 160.36 79.9377 159.941 79.9377 159.424C79.9377 158.907 79.5176 158.487 78.9994 158.487C78.4812 158.487 78.0611 158.907 78.0611 159.424C78.0611 159.941 78.4812 160.36 78.9994 160.36Z" fill="#FFB800"/>
    <path d="M105.021 160.36C105.539 160.36 105.959 159.941 105.959 159.424C105.959 158.907 105.539 158.487 105.021 158.487C104.502 158.487 104.082 158.907 104.082 159.424C104.082 159.941 104.502 160.36 105.021 160.36Z" fill="#FFB800"/>
    <path d="M131.041 160.36C131.559 160.36 131.979 159.941 131.979 159.424C131.979 158.907 131.559 158.487 131.041 158.487C130.522 158.487 130.102 158.907 130.102 159.424C130.102 159.941 130.522 160.36 131.041 160.36Z" fill="#FFB800"/>
    <path d="M157.062 160.36C157.58 160.36 158 159.941 158 159.424C158 158.907 157.58 158.487 157.062 158.487C156.544 158.487 156.123 158.907 156.123 159.424C156.123 159.941 156.544 160.36 157.062 160.36Z" fill="#FFB800"/>
    <path d="M0.938267 183.001C1.45646 183.001 1.87653 182.582 1.87653 182.065C1.87653 181.548 1.45646 181.128 0.938267 181.128C0.420077 181.128 0 181.548 0 182.065C0 182.582 0.420077 183.001 0.938267 183.001Z" fill="#FFB800"/>
    <path d="M26.9582 183.001C27.4764 183.001 27.8965 182.582 27.8965 182.065C27.8965 181.548 27.4764 181.128 26.9582 181.128C26.44 181.128 26.02 181.548 26.02 182.065C26.02 182.582 26.44 183.001 26.9582 183.001Z" fill="#FFB800"/>
    <path d="M52.9794 183.001C53.4976 183.001 53.9177 182.582 53.9177 182.065C53.9177 181.548 53.4976 181.128 52.9794 181.128C52.4612 181.128 52.0412 181.548 52.0412 182.065C52.0412 182.582 52.4612 183.001 52.9794 183.001Z" fill="#FFB800"/>
    <path d="M78.9994 183.001C79.5176 183.001 79.9377 182.582 79.9377 182.065C79.9377 181.548 79.5176 181.128 78.9994 181.128C78.4812 181.128 78.0611 181.548 78.0611 182.065C78.0611 182.582 78.4812 183.001 78.9994 183.001Z" fill="#FFB800"/>
    <path d="M105.021 183.001C105.539 183.001 105.959 182.582 105.959 182.065C105.959 181.548 105.539 181.128 105.021 181.128C104.502 181.128 104.082 181.548 104.082 182.065C104.082 182.582 104.502 183.001 105.021 183.001Z" fill="#FFB800"/>
    <path d="M131.041 183.001C131.559 183.001 131.979 182.582 131.979 182.065C131.979 181.548 131.559 181.128 131.041 181.128C130.522 181.128 130.102 181.548 130.102 182.065C130.102 182.582 130.522 183.001 131.041 183.001Z" fill="#FFB800"/>
    <path d="M157.062 183.001C157.58 183.001 158 182.582 158 182.065C158 181.548 157.58 181.128 157.062 181.128C156.544 181.128 156.123 181.548 156.123 182.065C156.123 182.582 156.544 183.001 157.062 183.001Z" fill="#FFB800"/>
    </g>
    <defs>
    <clipPath id="clip0_13_314">
    <rect width="158" height="183" fill="white"/>
    </clipPath>
    </defs>
    </svg>
    