<?xml version="1.0" encoding="utf-8"?>
<!-- Svg Vector Icons : http://www.onlinewebfonts.com/icon -->
<!DOCTYPE svg PUBLIC "-//W3C//DTD SVG 1.1//EN" "http://www.w3.org/Graphics/SVG/1.1/DTD/svg11.dtd">
<svg version="1.1" xmlns="http://www.w3.org/2000/svg" xmlns:xlink="http://www.w3.org/1999/xlink"
    x="0px" y="0px" viewBox="0 0 1000 1000" enable-background="new 0 0 1000 1000"
    xml:space="preserve">
<metadata> Svg Vector Icons : http://www.onlinewebfonts.com/icon </metadata>
<g><path d="M843.2,738.6c0,3.3,2.7,6,6,6s6-2.7,6-6c0-3.3-2.7-6-6-6S843.2,735.3,843.2,738.6z M711.2,874.8c0,6.6,5.3,11.9,11.9,11.9c6.6,0,11.9-5.3,11.9-11.9c0-6.6-5.3-11.9-11.9-11.9C716.5,862.9,711.2,868.2,711.2,874.8z M533.3,944.9c0,9.9,8,17.9,17.9,17.9c9.9,0,17.9-8,17.9-17.9c0-9.9-8-17.9-17.9-17.9C541.3,927,533.3,935,533.3,944.9L533.3,944.9z M341.7,935.5c0,13.1,10.6,23.8,23.8,23.8c13.1,0,23.8-10.6,23.8-23.8c0-13.1-10.6-23.8-23.8-23.8C352.4,911.7,341.7,922.4,341.7,935.5z M171.8,848.3c0,16.4,13.3,29.8,29.8,29.8c16.4,0,29.8-13.3,29.8-29.8c0-16.4-13.3-29.8-29.8-29.8C185.2,818.5,171.8,831.9,171.8,848.3z M54.2,700.1c0,19.7,16,35.7,35.7,35.7s35.7-16,35.7-35.7c0-19.7-16-35.7-35.7-35.7S54.2,680.3,54.2,700.1z M10,518.1c0,23,18.7,41.7,41.7,41.7c23,0,41.7-18.7,41.7-41.7c0-23-18.7-41.7-41.7-41.7C28.7,476.4,10,495.1,10,518.1z M46.3,337.2c0,26.3,21.3,47.6,47.6,47.6c26.3,0,47.6-21.3,47.6-47.6c0-26.3-21.3-47.6-47.6-47.6C67.7,289.6,46.3,310.9,46.3,337.2z M155.3,191.4c0,29.6,24,53.6,53.6,53.6c29.6,0,53.6-24,53.6-53.6c0-29.6-24-53.6-53.6-53.6C179.3,137.8,155.3,161.8,155.3,191.4z M315.4,107.9c0,32.9,26.7,59.5,59.5,59.5s59.5-26.7,59.5-59.5s-26.7-59.5-59.5-59.5S315.4,75.1,315.4,107.9z M495.2,102.7c0,36.2,29.3,65.5,65.5,65.5c36.2,0,65.5-29.3,65.5-65.5c0-36.2-29.3-65.5-65.5-65.5C524.5,37.2,495.2,66.6,495.2,102.7z M659.8,176.8c0,39.4,32,71.4,71.4,71.4c39.4,0,71.4-32,71.4-71.4s-32-71.4-71.4-71.4C691.7,105.4,659.8,137.3,659.8,176.8L659.8,176.8z M776.7,315.9c0,42.7,34.7,77.4,77.4,77.4c42.7,0,77.4-34.7,77.4-77.4c0-42.7-34.7-77.4-77.4-77.4C811.4,238.5,776.7,273.1,776.7,315.9z M823.2,496.1c0,46,37.3,83.4,83.4,83.4c46,0,83.4-37.3,83.4-83.4c0-46-37.3-83.4-83.4-83.4C860.6,412.7,823.2,450,823.2,496.1z"/></g>
</svg>